<?xml version="1.0" standalone="no"?>
<!DOCTYPE svg PUBLIC "-//W3C//DTD SVG 20010904//EN"
 "http://www.w3.org/TR/2001/REC-SVG-20010904/DTD/svg10.dtd">
<svg version="1.0" xmlns="http://www.w3.org/2000/svg"
 width="1836.000000pt" height="1836.000000pt" viewBox="0 0 1836.000000 1836.000000"
 preserveAspectRatio="xMidYMid meet">
<metadata>
Created by potrace 1.11, written by Peter Selinger 2001-2013
</metadata>
<g transform="translate(0.000000,1836.000000) scale(0.100000,-0.100000)"
fill="#000000" stroke="none">
<path d="M17246 15658 c-12 -65 -13 -73 -15 -103 -1 -21 -4 -26 -10 -16 -18
28 -39 -31 -44 -120 -4 -71 -8 -90 -26 -108 -11 -11 -28 -21 -36 -21 -8 0 -15
-4 -15 -10 0 -5 -7 -10 -15 -10 -8 0 -15 -7 -15 -15 0 -9 -17 -39 -37 -68 -48
-67 -63 -93 -63 -111 0 -8 -6 -21 -13 -28 -8 -7 -16 -20 -19 -28 -3 -9 -9 1
-13 22 -4 20 -14 39 -22 42 -18 7 -100 -74 -118 -117 -10 -24 -19 -30 -48 -33
-30 -2 -41 2 -66 32 -17 19 -31 41 -31 49 0 8 -9 19 -20 25 -11 6 -20 19 -20
29 0 11 -7 22 -16 25 -8 3 -13 10 -10 15 3 4 -3 16 -13 25 -18 16 -20 14 -56
-36 -36 -50 -39 -51 -48 -30 -11 23 -27 30 -27 11 0 -6 -6 -9 -14 -6 -8 3 -17
1 -19 -6 -3 -9 -9 -9 -24 0 -17 9 -28 8 -61 -8 l-41 -20 0 -74 c0 -41 -7 -102
-15 -137 -8 -35 -18 -97 -22 -138 -6 -71 -26 -130 -42 -130 -4 0 -16 20 -26
45 -27 65 -42 57 -47 -25 -3 -49 22 -182 38 -198 7 -7 13 -26 13 -41 0 -16 3
-43 7 -61 l6 -33 -34 7 c-19 4 -47 8 -64 9 -16 1 -36 8 -43 14 -22 21 -60 15
-77 -11 -10 -14 -18 -59 -22 -120 -5 -82 -10 -101 -30 -124 -38 -44 -65 -129
-65 -201 1 -73 13 -134 50 -241 36 -106 37 -282 2 -475 -25 -139 -108 -414
-168 -557 -21 -51 -51 -126 -67 -167 -61 -159 -237 -482 -315 -577 -14 -17
-38 -48 -55 -69 -36 -47 -116 -126 -216 -215 -41 -36 -92 -83 -115 -105 -22
-22 -56 -53 -75 -69 -86 -72 -172 -152 -305 -281 -336 -329 -644 -622 -863
-821 -29 -27 -66 -60 -81 -74 -15 -14 -51 -45 -80 -70 -29 -25 -63 -55 -76
-66 -13 -12 -51 -44 -86 -70 -35 -27 -68 -53 -75 -59 -18 -14 -33 -26 -78 -59
-22 -17 -42 -32 -45 -35 -5 -6 -57 -45 -152 -114 -20 -15 -41 -27 -46 -27 -6
0 -12 -4 -14 -8 -3 -8 -281 -194 -368 -246 -73 -44 -84 -50 -110 -67 -14 -9
-50 -30 -80 -46 -30 -17 -91 -51 -135 -75 -119 -66 -331 -172 -405 -202 -101
-41 -103 -43 -130 -55 -51 -23 -318 -115 -451 -155 -110 -33 -501 -132 -554
-140 -22 -3 -62 -11 -90 -16 -144 -28 -327 -58 -395 -65 -19 -2 -80 -10 -135
-19 -130 -19 -226 -30 -380 -41 -49 -4 -97 -9 -107 -10 -24 -5 -536 -26 -653
-27 -98 -1 -462 11 -510 17 -22 2 -69 7 -105 10 -76 6 -162 15 -205 20 -16 2
-52 7 -80 10 -56 7 -274 41 -350 55 -27 5 -68 11 -90 15 -22 3 -49 8 -60 10
-24 4 -172 35 -200 42 -11 2 -51 11 -88 18 -37 8 -150 35 -250 61 -100 25
-193 49 -207 52 -14 2 -29 8 -35 12 -5 4 -28 11 -50 15 -21 3 -141 41 -265 82
-304 102 -351 118 -391 136 -19 8 -59 24 -89 35 -116 43 -197 75 -248 98 -29
13 -55 24 -58 24 -3 0 -43 18 -90 40 -47 22 -92 40 -100 40 -8 0 -14 4 -14 9
0 5 -11 12 -24 15 -36 9 -622 290 -636 306 -10 10 -135 70 -147 70 -6 0 -13 4
-15 8 -1 5 -46 31 -98 57 -52 27 -103 56 -112 64 -10 8 -18 11 -18 6 0 -4 -6
-2 -14 4 -7 6 -54 32 -102 57 -49 25 -143 74 -209 109 -156 82 -309 158 -315
158 -3 -1 -23 8 -45 19 -55 29 -178 78 -192 78 -7 0 -13 5 -13 10 0 6 -7 10
-15 10 -8 0 -29 7 -47 15 -37 16 -271 107 -388 150 -41 15 -88 33 -105 40 -16
7 -70 27 -120 45 -49 17 -99 35 -110 40 -11 5 -95 38 -186 74 -163 64 -245 98
-322 137 -22 10 -43 19 -48 19 -5 0 -43 16 -85 35 -41 19 -78 35 -81 35 -5 0
-44 17 -141 61 -35 16 -65 29 -67 29 -3 0 -38 15 -77 33 -40 18 -99 42 -131
52 -31 11 -57 23 -57 27 0 4 -4 8 -10 8 -5 0 -69 25 -141 56 -126 55 -132 56
-169 44 -21 -7 -52 -10 -69 -7 -42 9 -59 0 -66 -34 -4 -19 -20 -38 -40 -52
-19 -12 -35 -31 -37 -42 -4 -28 -64 -46 -181 -52 l-97 -6 -23 -38 c-20 -34
-40 -64 -130 -199 -42 -63 -105 -120 -133 -120 -13 0 -34 -11 -48 -25 -14 -14
-29 -25 -35 -25 -12 0 -19 -21 -25 -75 -3 -22 -12 -80 -21 -130 -16 -86 -22
-290 -10 -345 3 -14 12 -70 20 -125 8 -55 17 -109 19 -120 34 -167 50 -241 71
-330 9 -38 18 -77 20 -85 13 -60 82 -322 105 -400 11 -36 26 -90 34 -120 35
-135 89 -298 127 -383 66 -150 196 -405 272 -532 10 -16 20 -38 23 -47 4 -10
10 -18 15 -18 5 0 9 -5 9 -11 0 -9 24 -49 138 -224 41 -62 207 -296 239 -335
205 -254 344 -412 524 -590 193 -192 278 -269 515 -468 89 -75 429 -325 569
-419 205 -137 447 -283 655 -397 153 -83 677 -342 710 -351 3 -1 23 -9 45 -19
76 -34 440 -183 490 -201 28 -9 57 -20 65 -23 8 -3 17 -6 20 -7 3 -1 12 -5 20
-8 132 -57 696 -240 1010 -327 110 -31 258 -71 275 -75 196 -44 304 -68 370
-81 44 -9 105 -23 135 -30 30 -7 69 -15 85 -18 17 -3 71 -14 120 -25 276 -60
306 -66 370 -77 11 -1 56 -10 100 -18 44 -8 94 -18 110 -21 17 -3 41 -8 55
-10 29 -6 35 -7 190 -34 63 -11 138 -23 165 -26 28 -3 64 -8 80 -10 17 -2 57
-7 90 -9 33 -3 80 -8 105 -11 25 -2 77 -7 115 -9 97 -7 242 -17 290 -21 267
-24 1158 -24 1430 -1 22 2 87 7 145 11 58 3 125 8 150 11 164 16 349 36 370
39 14 2 48 7 75 10 46 5 225 30 285 41 14 2 52 9 85 14 351 59 684 135 995
230 52 16 136 41 185 55 141 42 313 102 352 123 12 7 29 12 37 12 18 0 144 52
366 152 85 38 163 71 173 73 47 10 653 312 861 430 93 52 173 95 178 95 4 0 8
4 8 9 0 5 9 12 19 16 40 12 357 209 606 375 222 148 234 156 380 264 576 423
1036 846 1415 1301 122 146 111 133 204 259 245 331 458 706 582 1027 80 208
172 519 198 669 3 19 8 46 11 60 3 14 8 45 11 70 3 25 8 54 10 65 5 24 20 153
31 255 10 93 10 338 0 405 -4 28 -9 67 -12 87 -3 21 -7 55 -10 75 -3 21 -8 56
-11 78 -3 22 -7 47 -9 55 -3 8 -7 33 -11 54 -7 49 -42 166 -129 441 -37 116
-72 230 -79 255 -7 25 -32 112 -55 194 -24 81 -44 156 -46 165 -3 9 -16 59
-30 111 -14 52 -27 109 -30 125 -3 17 -12 55 -19 85 -12 46 -45 226 -61 335
-11 70 -18 164 -16 220 0 33 3 168 6 300 2 132 6 260 9 285 31 292 103 456
243 551 104 71 150 117 156 159 3 19 13 67 22 105 18 80 20 92 41 210 5 27 12
119 19 235 3 52 7 104 9 115 2 11 7 52 11 90 4 39 9 79 11 90 2 11 6 43 9 70
3 28 8 57 10 65 2 8 7 42 10 75 3 33 9 80 12 105 4 25 6 87 5 139 -1 88 0 95
23 113 14 10 30 36 36 58 11 36 9 43 -25 112 -46 90 -82 122 -139 120 -72 -3
-188 62 -423 239 -72 55 -138 99 -146 99 -10 0 -18 -13 -22 -32z"/>
</g>
</svg>
